<svg width="256" height="256" viewBox="0 0 256 256" fill="none" xmlns="http://www.w3.org/2000/svg">
<rect width="256" height="256" rx="40" fill="#003CFF"/>
<path fill-rule="evenodd" clip-rule="evenodd" d="M117.823 65.2327C118.553 64.719 119.739 64.6944 120.48 65.1799L143.082 80.0619C143.832 80.5707 144.017 81.5751 143.499 82.3101L127.54 103.804C127.017 104.512 125.893 104.89 125.019 104.66L81.3564 92.8301C80.4936 92.5828 80.373 91.9438 81.0993 91.4124L117.823 65.2327Z" fill="white"/>
<path fill-rule="evenodd" clip-rule="evenodd" d="M87.9824 103.687L103.5 124.924C104.009 125.618 104.032 126.775 103.544 127.493L79.1809 164.076C78.6826 164.805 78.0488 164.717 77.7661 163.895L64.0954 122.123C63.8214 121.295 64.1586 120.191 64.8379 119.663L85.7376 103.387C86.4429 102.857 87.4451 102.998 87.9824 103.687Z" fill="white"/>
<path fill-rule="evenodd" clip-rule="evenodd" d="M152.105 72.4235L154.105 117.45C154.133 118.344 154.844 119.282 155.672 119.564L180.967 127.933C181.82 128.188 182.714 127.694 182.976 126.845L190.269 100.784C190.503 99.9346 190.121 98.8078 189.408 98.2873L153.375 71.7335C152.649 71.2126 152.079 71.5219 152.105 72.4235Z" fill="white"/>
<path fill-rule="evenodd" clip-rule="evenodd" d="M190.913 133.082L150.266 148.887C149.465 149.194 148.812 150.167 148.812 151.05L148.779 177.94C148.798 178.837 149.511 179.557 150.381 179.532L176.444 178.511C177.299 178.477 178.207 177.763 178.472 176.921L191.93 134.097C192.185 133.233 191.723 132.777 190.913 133.082Z" fill="white"/>
<path fill-rule="evenodd" clip-rule="evenodd" d="M146.841 189.885L119.297 155.445C118.759 154.765 117.638 154.421 116.814 154.688L91.6729 162.79C90.8348 163.083 90.395 163.988 90.6878 164.828L99.8277 189.672C100.136 190.48 101.09 191.143 101.962 191.143L146.218 191.169C147.098 191.155 147.384 190.585 146.841 189.885Z" fill="white"/>
</svg>
