<svg width="256" height="256" viewBox="0 0 256 256" fill="none" xmlns="http://www.w3.org/2000/svg">
<g clip-path="url(#clip0_1056_1622)">
<rect width="256" height="256" rx="40" fill="#003CFF"/>
<path d="M173.531 63.7214L127.821 76.5771L82.1122 63.7214L63.8999 69.078V187.279L82.1122 192.279L127.821 179.423L173.531 192.279L191.743 187.279V69.078L173.531 63.7214ZM155.318 151.926L127.821 144.427L100.324 151.926V104.074L127.821 111.573L155.318 104.074V151.926Z" fill="#B7BABB"/>
<path d="M127.822 86.933V111.573L82.1126 98.7174V191.921L63.9004 186.922V69.0779L127.822 86.933Z" fill="white"/>
<path d="M155.319 162.282L127.822 154.425V179.066L173.531 191.921V98.7174L155.319 104.074V162.282Z" fill="white"/>
<path d="M173.531 63.7214L192.1 69.078L127.821 86.9331L63.8999 69.078L82.1122 63.7214L127.821 76.5771L173.531 63.7214Z" fill="#999999"/>
<path d="M127.821 144.07L155.318 151.926V162.282L127.821 154.426L100.324 162.282V151.926L127.821 144.07Z" fill="#999999"/>
</g>
<defs>
<clipPath id="clip0_1056_1622">
<rect width="256" height="256" fill="white"/>
</clipPath>
</defs>
</svg>
